<svg xmlns="http://www.w3.org/2000/svg" xmlns:svg="http://www.w3.org/2000/svg" id="svg4" width="67.008" height="71.909" x="0" y="0" enable-background="new 0 0 100 100" version="1.1" viewBox="0 0 67.008 71.909" xml:space="preserve"><metadata id="metadata10"/><path id="path2" d="m 47.470176,30.998 c 0.008,-0.009 0.021,-0.021 0.027,-0.029 0.938,-1.156 -0.823,-13.453 -5.063,-20.125 -1.389,-2.186 -2.239,-3.423 -3.219,-4.719 -3.907,-5.166 -6,-6.125 -6,-6.125 0,0 -13.979,10.735 -13.562,30.27 -1.754,0.065 -11.2179997,7.528 -14.8259997,14.388 -1.206,2.291 -1.856,3.645 -2.493,5.141 -2.53899996,5.957 -2.32999996,8.25 -2.32999996,8.25 0,0 16.27099966,6.79 33.01399966,-3.294 0.007,0.021 0.013,0.046 0.02,0.063 0.537,1.389 12.08,5.979 19.976,5.621 2.587,-0.116 4.084,-0.238 5.696,-0.444 6.424,-0.818 8.298,-2.157 8.298,-2.157 0,0 -2.36,-17.487 -19.538,-26.84 z m -13.179,20.3 c 1.059,-1.183 4.648,-5.853 0.995,-11.315 -0.253,-0.377 -0.496,-0.236 -0.496,-0.236 0,0 0.063,10.822 -5.162,12.359 -5.225,1.537 -13.886,4.4 -20.4269997,0.455 -0.697,-0.42 1.2269997,-13 12.8469997,-19.377 0.546,1.599 2.836,6.854 9.292,6.409 0.453,-0.031 0.453,-0.313 0.453,-0.313 0,0 -9.422,-5.328 -8.156,-10.625 1.266,-5.297 3.089,-14.236 9.766,-17.948 0.714,-0.397 10.746,7.593 10.417,20.94 -1.606,-0.319 -7.377,-1.004 -10.226,4.864 -0.198,0.409 0.046,0.549 0.046,0.549 0,0 9.31,-5.521 13.275,-1.789 3.965,3.733 10.813,9.763 10.71,17.4 -0.01,0.817 -11.924,5.542 -23.334,-1.373 z M 19.117176,21.1 c 0,0 -0.991,3.241 -0.603,7.524 L 5.1211763,21.1 c 10e-4,0 6.2209997,-4.214 13.9959997,0 z M 4.6971763,21.985 18.041176,29.597 c -3.872,1.872 -6.142,4.388 -6.142,4.388 -7.6149997,-4.499 -7.2019997,-12 -7.2019997,-12 z M 55.791176,35.019 c 0,0 -2.321,-2.471 -6.23,-4.263 l 13.187,-7.881 c -10e-4,0 0.564,7.493 -6.957,12.144 z m 6.4,-12.951 -13.237,7.794 c 0.3,-4.291 -0.754,-7.511 -0.754,-7.511 7.687,-4.371 13.991,-0.283 13.991,-0.283 z m -36.611,37.665 c 0,0 3.309,-0.737 6.845,-3.185 l 0.056,15.361 c 0,10e-4 -6.733,-3.333 -6.901,-12.176 z m 7.88,12.11 0.044,-15.362 c 3.539,2.445 6.846,3.181 6.846,3.181 -0.16,8.844 -6.89,12.181 -6.89,12.181 z"/></svg>